<svg width="251" height="50" viewBox="0 0 251 50" fill="none" xmlns="http://www.w3.org/2000/svg">
<path d="M10 29V5.4H11.2V29H10ZM12.4 29V5.4H16V29H12.4ZM17.2 29V5.4H18.4V29H17.2ZM19.6 29V5.4H23.2V29H19.6ZM26.8 29V5.4H28V29H26.8ZM19.56 41.92C18.36 41.92 17.3867 41.52 16.64 40.72L17.2 39.8L17.24 39.68L17.36 39.72C17.36 39.7467 17.3733 39.8 17.4 39.88C17.4 39.9333 17.4267 40 17.48 40.08C17.5067 40.1333 17.56 40.1867 17.64 40.24C18.2 40.72 18.8933 40.96 19.72 40.96C20.2533 40.96 20.7067 40.8133 21.08 40.52C21.4533 40.2 21.64 39.8267 21.64 39.4C21.64 39.1067 21.5733 38.8533 21.44 38.64C21.3333 38.4533 21.1333 38.2667 20.84 38.08C20.5467 37.8933 20.0933 37.6667 19.48 37.4C18.5733 37.0533 17.92 36.6533 17.52 36.2C17.1467 35.7467 16.96 35.24 16.96 34.68C16.96 33.9867 17.2133 33.4267 17.72 33C18.2267 32.5733 18.9067 32.36 19.76 32.36C20.2667 32.36 20.7467 32.4667 21.2 32.68C21.6267 32.8933 22.0133 33.1733 22.36 33.52L21.68 34.44L21.6 34.36C21.6 34.3333 21.5867 34.2933 21.56 34.24C21.56 34.16 21.5333 34.0933 21.48 34.04C21.4533 33.96 21.4 33.8933 21.32 33.84C21.1067 33.6267 20.8533 33.4667 20.56 33.36C20.2933 33.28 19.9733 33.24 19.6 33.24C19.12 33.24 18.7467 33.3733 18.48 33.64C18.1867 33.9067 18.04 34.2267 18.04 34.6C18.04 34.8933 18.0933 35.1467 18.2 35.36C18.3333 35.5733 18.56 35.7733 18.88 35.96C19.2 36.1733 19.68 36.4 20.32 36.64C21.2 37.0133 21.8133 37.3867 22.16 37.76C22.48 38.16 22.64 38.6533 22.64 39.24C22.64 39.6933 22.5333 40.12 22.32 40.52C22.08 40.92 21.7333 41.2533 21.28 41.52C20.8 41.7867 20.2267 41.92 19.56 41.92ZM29.2188 29V5.4H30.4188V29H29.2188ZM31.6188 29V5.4H32.8188V29H31.6188ZM34.0188 29V5.4H37.6188V29H34.0188ZM38.8188 29V5.4H42.4188V29H38.8188ZM46.0188 29V5.4H47.2188V29H46.0188ZM38.1788 33.4H35.5788V32.48H41.9788V33.4H39.2588V41.76H38.1788V33.4ZM48.4375 29V5.4H52.0375V29H48.4375ZM53.2375 29V5.4H54.4375V29H53.2375ZM55.6375 29V5.4H56.8375V29H55.6375ZM58.0375 29V5.4H61.6375V29H58.0375ZM65.2375 29V5.4H66.4375V29H65.2375ZM55.1575 32.48H57.8775C58.9442 32.48 59.7175 32.72 60.1975 33.2C60.7042 33.6533 60.9575 34.3067 60.9575 35.16C60.9575 35.6933 60.7842 36.2 60.4375 36.68C60.0908 37.16 59.6375 37.48 59.0775 37.64L61.2375 41.76H60.0775L57.9975 37.68H56.1975V41.76H55.1575V32.48ZM57.9975 36.76C58.6375 36.76 59.1175 36.6133 59.4375 36.32C59.7308 36.0533 59.8775 35.6667 59.8775 35.16C59.8775 34.6533 59.7308 34.24 59.4375 33.92C59.1175 33.6267 58.6375 33.48 57.9975 33.48H56.1975V36.76H57.9975ZM67.6562 29V5.4H71.2563V29H67.6562ZM72.4563 29V5.4H73.6563V29H72.4563ZM74.8563 29V5.4H78.4563V29H74.8563ZM82.0563 29V5.4H83.2563V29H82.0563ZM84.4563 29V5.4H85.6563V29H84.4563ZM74.4163 32.48H80.0963V33.4H75.3763V36.44H79.2963V37.4H75.3763V40.84H80.0563V41.76H74.4163V32.48ZM86.875 29V5.4H90.475V29H86.875ZM91.675 29V5.4H92.875V29H91.675ZM94.075 29V5.4H97.675V29H94.075ZM101.275 29V5.4H102.475V29H101.275ZM103.675 29V5.4H104.875V29H103.675ZM93.635 32.48H99.315V33.4H94.595V36.44H98.515V37.4H94.595V40.84H99.275V41.76H93.635V32.48ZM106.094 29V5.4H107.294V29H106.094ZM108.494 29V5.4H109.694V29H108.494ZM110.894 29V5.4H114.494V29H110.894ZM115.694 29V5.4H119.294V29H115.694ZM122.894 29V5.4H124.094V29H122.894ZM115.054 33.4H112.454V32.48H118.854V33.4H116.134V41.76H115.054V33.4ZM125.312 29V5.4H126.513V29H125.312ZM127.713 29V5.4H131.313V29H127.713ZM132.513 29V5.4H133.713V29H132.513ZM134.913 29V5.4H138.513V29H134.913ZM142.113 29V5.4H143.313V29H142.113ZM134.873 41.92C133.673 41.92 132.699 41.52 131.953 40.72L132.513 39.8L132.553 39.68L132.673 39.72C132.673 39.7467 132.686 39.8 132.713 39.88C132.713 39.9333 132.739 40 132.793 40.08C132.819 40.1333 132.873 40.1867 132.953 40.24C133.513 40.72 134.206 40.96 135.033 40.96C135.566 40.96 136.019 40.8133 136.393 40.52C136.766 40.2 136.953 39.8267 136.953 39.4C136.953 39.1067 136.886 38.8533 136.753 38.64C136.646 38.4533 136.446 38.2667 136.153 38.08C135.859 37.8933 135.406 37.6667 134.793 37.4C133.886 37.0533 133.233 36.6533 132.833 36.2C132.459 35.7467 132.273 35.24 132.273 34.68C132.273 33.9867 132.526 33.4267 133.033 33C133.539 32.5733 134.219 32.36 135.073 32.36C135.579 32.36 136.059 32.4667 136.513 32.68C136.939 32.8933 137.326 33.1733 137.673 33.52L136.993 34.44L136.913 34.36C136.913 34.3333 136.899 34.2933 136.873 34.24C136.873 34.16 136.846 34.0933 136.793 34.04C136.766 33.96 136.713 33.8933 136.633 33.84C136.419 33.6267 136.166 33.4667 135.872 33.36C135.606 33.28 135.286 33.24 134.913 33.24C134.433 33.24 134.059 33.3733 133.793 33.64C133.499 33.9067 133.353 34.2267 133.353 34.6C133.353 34.8933 133.406 35.1467 133.513 35.36C133.646 35.5733 133.873 35.7733 134.193 35.96C134.513 36.1733 134.993 36.4 135.633 36.64C136.513 37.0133 137.126 37.3867 137.473 37.76C137.793 38.16 137.953 38.6533 137.953 39.24C137.953 39.6933 137.846 40.12 137.633 40.52C137.393 40.92 137.046 41.2533 136.593 41.52C136.113 41.7867 135.539 41.92 134.873 41.92ZM144.531 29V5.4H145.731V29H144.531ZM146.931 29V5.4H148.131V29H146.931ZM149.331 29V5.4H152.931V29H149.331ZM154.131 29V5.4H157.731V29H154.131ZM161.331 29V5.4H162.531V29H161.331ZM153.491 33.4H150.891V32.48H157.291V33.4H154.571V41.76H153.491V33.4ZM163.75 29V5.4H167.35V29H163.75ZM168.55 29V5.4H169.75V29H168.55ZM170.95 29V5.4H172.15V29H170.95ZM173.35 29V5.4H176.95V29H173.35ZM180.55 29V5.4H181.75V29H180.55ZM170.47 32.48H173.19C174.257 32.48 175.03 32.72 175.51 33.2C176.017 33.6533 176.27 34.3067 176.27 35.16C176.27 35.6933 176.097 36.2 175.75 36.68C175.403 37.16 174.95 37.48 174.39 37.64L176.55 41.76H175.39L173.31 37.68H171.51V41.76H170.47V32.48ZM173.31 36.76C173.95 36.76 174.43 36.6133 174.75 36.32C175.043 36.0533 175.19 35.6667 175.19 35.16C175.19 34.6533 175.043 34.24 174.75 33.92C174.43 33.6267 173.95 33.48 173.31 33.48H171.51V36.76H173.31ZM182.969 29V5.4H184.169V29H182.969ZM185.369 29V5.4H188.969V29H185.369ZM190.169 29V5.4H191.369V29H190.169ZM194.969 29V5.4H198.569V29H194.969ZM199.769 29V5.4H200.969V29H199.769ZM190.049 40.88H191.889V33.36H190.169V32.48H194.769V33.36H192.929V40.88H194.849V41.76H190.049V40.88ZM202.188 29V5.4H203.388V29H202.188ZM204.588 29V5.4H205.788V29H204.588ZM206.988 29V5.4H210.588V29H206.988ZM214.188 29V5.4H215.388V29H214.188ZM216.588 29V5.4H220.188V29H216.588ZM208.868 32.48H211.028C211.801 32.48 212.401 32.5867 212.828 32.8C213.281 33.0133 213.668 33.3333 213.988 33.76C214.601 34.56 214.908 35.6933 214.908 37.16C214.854 38.68 214.508 39.8267 213.868 40.6C213.228 41.4 212.228 41.7867 210.868 41.76H208.868V32.48ZM210.788 40.96C212.841 40.96 213.868 39.72 213.868 37.24C213.868 35.9867 213.641 35.0267 213.188 34.36C212.708 33.6933 211.961 33.36 210.948 33.36H209.868V40.96H210.788ZM221.406 29V5.4H225.006V29H221.406ZM226.206 29V5.4H227.406V29H226.206ZM228.606 29V5.4H232.206V29H228.606ZM235.806 29V5.4H237.006V29H235.806ZM238.206 29V5.4H239.406V29H238.206ZM228.166 32.48H233.846V33.4H229.126V36.44H233.046V37.4H229.126V40.84H233.806V41.76H228.166V32.48Z" fill="black"/>
</svg>
